<svg width="14" height="15" viewBox="0 0 14 15" fill="none" xmlns="http://www.w3.org/2000/svg">
<path d="M5.98786 1.37899C5.23346 1.51201 4.51264 1.79232 3.86656 2.20391C3.22049 2.61551 2.66181 3.15033 2.22243 3.77784C1.78304 4.40534 1.47156 5.11325 1.30575 5.86113C1.13995 6.60902 1.12308 7.38224 1.2561 8.13665C1.38912 8.89105 1.66943 9.61187 2.08103 10.2579C2.49263 10.904 3.02744 11.4627 3.65495 11.9021C4.28246 12.3415 4.99036 12.653 5.73825 12.8188C6.48614 12.9846 7.25936 13.0014 8.01376 12.8684C8.76817 12.7354 9.48899 12.4551 10.1351 12.0435C10.7811 11.6319 11.3398 11.0971 11.7792 10.4696C12.2186 9.84205 12.5301 9.13415 12.6959 8.38626C12.8617 7.63837 12.8785 6.86515 12.7455 6.11075C12.6125 5.35634 12.3322 4.63552 11.9206 3.98945C11.509 3.34337 10.9742 2.78469 10.3467 2.34531C9.71917 1.90592 9.01126 1.59444 8.26337 1.42864C7.51549 1.26283 6.74227 1.24596 5.98786 1.37899L5.98786 1.37899Z" stroke="#34C759"/>
<path d="M7.00098 7.125L7.00098 3.625" stroke="#34C759" stroke-linecap="square"/>
<path d="M7.00098 10.043L7.00098 10.6263" stroke="#34C759" stroke-linecap="square"/>
</svg>
