<svg width="15" height="15" viewBox="0 0 15 15" fill="none" xmlns="http://www.w3.org/2000/svg">
<path d="M8.72034 2.72811C9.29076 2.34782 9.57598 2.15768 9.88614 2.16189C9.94293 2.16266 9.99955 2.16826 10.0554 2.17865C10.3604 2.23535 10.6027 2.47774 11.0875 2.9625L12.0375 3.9125C12.5223 4.39726 12.7646 4.63965 12.8214 4.94461C12.8317 5.00045 12.8373 5.05707 12.8381 5.11386C12.8423 5.42402 12.6522 5.70924 12.2719 6.27966L11.5262 7.39826C11.503 7.43305 11.4914 7.45044 11.48 7.46774C10.9202 8.31689 10.5275 9.26499 10.3229 10.2612C10.3187 10.2815 10.3146 10.302 10.3064 10.343L10.187 10.9399C10.0986 11.3819 9.58651 11.5887 9.21593 11.3322V11.3322C7.04808 9.83136 5.16864 7.95192 3.66782 5.78407V5.78407C3.41126 5.41349 3.61815 4.90137 4.06011 4.81298L4.65696 4.69361C4.69796 4.68541 4.71845 4.68131 4.73875 4.67714C5.73501 4.47251 6.68311 4.0798 7.53226 3.52003C7.54956 3.50863 7.56695 3.49703 7.60174 3.47384L8.72034 2.72811Z" stroke="#3096FF"/>
<path d="M3.125 11.875L5.9375 9.0625" stroke="#3096FF" stroke-linecap="round"/>
</svg>
