<svg width="12" height="10" viewBox="0 0 12 10" fill="none" xmlns="http://www.w3.org/2000/svg">
<path d="M11 1V4H8" stroke="#1A80E6" stroke-linecap="round" stroke-linejoin="round"/>
<path d="M1 9V6H4" stroke="#1A80E6" stroke-linecap="round" stroke-linejoin="round"/>
<path d="M2.14091 3.66632C2.37144 3.02916 2.76324 2.45951 3.27976 2.01051C3.79627 1.56151 4.42067 1.2478 5.09468 1.09864C5.76869 0.949491 6.47034 0.969759 7.13418 1.15756C7.79801 1.34535 8.40239 1.69456 8.89091 2.17259L11 4.11088M1 5.88912L3.10909 7.82741C3.59761 8.30544 4.20199 8.65465 4.86582 8.84244C5.52966 9.03024 6.23131 9.05051 6.90532 8.90136C7.57933 8.7522 8.20373 8.43849 8.72024 7.98949C9.23676 7.54049 9.62856 6.97084 9.85909 6.33368" stroke="#1A80E6" stroke-linecap="round" stroke-linejoin="round"/>
</svg>
