<svg width="20" height="18" viewBox="0 0 20 18" fill="none" xmlns="http://www.w3.org/2000/svg">
<path d="M8.14337 3.629C8.92998 1.668 9.32328 0.6875 9.99961 0.6875C10.6759 0.6875 11.0692 1.668 11.8558 3.629L11.8925 3.72031C12.3369 4.82818 12.5591 5.38212 13.0119 5.7188C13.4648 6.05549 14.0592 6.10873 15.2481 6.21521L15.4631 6.23446C17.4089 6.40872 18.3818 6.49585 18.59 7.11484C18.7981 7.73382 18.0756 8.39116 16.6306 9.70585L16.1483 10.1446C15.4168 10.8101 15.051 11.1429 14.8806 11.579C14.8488 11.6604 14.8223 11.7437 14.8014 11.8285C14.6894 12.2832 14.7965 12.7659 15.0107 13.7314L15.0774 14.0319C15.471 15.8063 15.6679 16.6934 15.3242 17.0761C15.1958 17.2191 15.0289 17.322 14.8434 17.3726C14.3472 17.508 13.6428 16.934 12.2338 15.7859C11.3086 15.032 10.8461 14.6551 10.3149 14.5703C10.106 14.5369 9.89317 14.5369 9.68426 14.5703C9.15316 14.6551 8.69057 15.032 7.7654 15.7859C6.35645 16.934 5.65197 17.508 5.15577 17.3726C4.97035 17.322 4.80344 17.2191 4.67502 17.0761C4.33134 16.6934 4.52818 15.8063 4.92185 14.0319L4.98853 13.7314C5.20274 12.7659 5.30984 12.2832 5.19779 11.8285C5.17688 11.7437 5.15045 11.6604 5.11865 11.579C4.94817 11.1429 4.58242 10.8101 3.85091 10.1446L3.36863 9.70585C1.92359 8.39116 1.20107 7.73382 1.40924 7.11484C1.61742 6.49585 2.59033 6.40872 4.53614 6.23446L4.75108 6.21521C5.94 6.10873 6.53445 6.05549 6.9873 5.7188C7.44015 5.38212 7.66235 4.82818 8.10674 3.72031L8.14337 3.629Z" stroke="#222222"/>
</svg>
