<svg width="22" height="20" viewBox="0 0 22 20" fill="none" xmlns="http://www.w3.org/2000/svg">
<path d="M9.14337 3.9415C9.92998 1.9805 10.3233 1 10.9996 1C11.6759 1 12.0692 1.9805 12.8558 3.9415L12.8925 4.03281C13.3369 5.14068 13.5591 5.69462 14.0119 6.0313C14.4648 6.36799 15.0592 6.42123 16.2481 6.52771L16.4631 6.54696C18.4089 6.72122 19.3818 6.80835 19.59 7.42734C19.7981 8.04632 19.0756 8.70366 17.6306 10.0183L17.1483 10.4571C16.4168 11.1226 16.051 11.4554 15.8806 11.8915C15.8488 11.9729 15.8223 12.0562 15.8014 12.141C15.6894 12.5957 15.7965 13.0784 16.0107 14.0439L16.0774 14.3444C16.471 16.1188 16.6679 17.0059 16.3242 17.3886C16.1958 17.5316 16.0289 17.6345 15.8434 17.6851C15.3472 17.8205 14.6428 17.2465 13.2338 16.0984C12.3086 15.3445 11.8461 14.9676 11.3149 14.8828C11.106 14.8494 10.8932 14.8494 10.6843 14.8828C10.1532 14.9676 9.69057 15.3445 8.7654 16.0984C7.35645 17.2465 6.65197 17.8205 6.15577 17.6851C5.97035 17.6345 5.80344 17.5316 5.67502 17.3886C5.33134 17.0059 5.52818 16.1188 5.92185 14.3444L5.98853 14.0439C6.20274 13.0784 6.30984 12.5957 6.19779 12.141C6.17688 12.0562 6.15045 11.9729 6.11865 11.8915C5.94817 11.4554 5.58242 11.1226 4.85091 10.4571L4.36863 10.0184C2.92359 8.70366 2.20107 8.04632 2.40924 7.42734C2.61742 6.80835 3.59033 6.72122 5.53614 6.54696L5.75108 6.52771C6.94 6.42123 7.53445 6.36799 7.9873 6.0313C8.44015 5.69462 8.66235 5.14068 9.10674 4.03281L9.14337 3.9415Z" stroke="#222222"/>
<path d="M16 3.3125L18 1.3125" stroke="#2A4157" stroke-opacity="0.24" stroke-linecap="round"/>
<path d="M19 13.3125L21 15.3125" stroke="#2A4157" stroke-opacity="0.24" stroke-linecap="round"/>
<path d="M11 16.8125V19.3125" stroke="#2A4157" stroke-opacity="0.24" stroke-linecap="round"/>
<path d="M6 3.3125L4 1.3125" stroke="#2A4157" stroke-opacity="0.24" stroke-linecap="round"/>
<path d="M3 13.3125L1 15.3125" stroke="#2A4157" stroke-opacity="0.24" stroke-linecap="round"/>
</svg>
